<?xml version="1.0" encoding="utf-8" standalone="no"?>
<!DOCTYPE svg PUBLIC "-//W3C//DTD SVG 1.1//EN"
  "http://www.w3.org/Graphics/SVG/1.1/DTD/svg11.dtd">
<!-- Created with matplotlib (https://matplotlib.org/) -->
<svg height="576pt" version="1.1" viewBox="0 0 1152 576" width="1152pt" xmlns="http://www.w3.org/2000/svg" xmlns:xlink="http://www.w3.org/1999/xlink">
 <metadata>
  <rdf:RDF xmlns:cc="http://creativecommons.org/ns#" xmlns:dc="http://purl.org/dc/elements/1.1/" xmlns:rdf="http://www.w3.org/1999/02/22-rdf-syntax-ns#">
   <cc:Work>
    <dc:type rdf:resource="http://purl.org/dc/dcmitype/StillImage"/>
    <dc:date>2021-03-23T08:59:12.195479</dc:date>
    <dc:format>image/svg+xml</dc:format>
    <dc:creator>
     <cc:Agent>
      <dc:title>Matplotlib v3.3.2, https://matplotlib.org/</dc:title>
     </cc:Agent>
    </dc:creator>
   </cc:Work>
  </rdf:RDF>
 </metadata>
 <defs>
  <style type="text/css">*{stroke-linecap:butt;stroke-linejoin:round;}</style>
 </defs>
 <g id="figure_1">
  <g id="patch_1">
   <path d="M 0 576 
L 1152 576 
L 1152 0 
L 0 0 
z
" style="fill:none;"/>
  </g>
  <g id="axes_1">
   <g id="patch_2">
    <path d="M 144 504 
L 1036.8 504 
L 1036.8 69.12 
L 144 69.12 
z
" style="fill:#ffffff;"/>
   </g>
   <g id="PolyCollection_1">
    <defs>
     <path d="M 313.518987 -412.047135 
L 313.518987 -362.191647 
L 324.820253 -358.077326 
L 336.121519 -353.963004 
L 347.422785 -349.848682 
L 358.724051 -345.73436 
L 370.025316 -341.620039 
L 381.326582 -337.505717 
L 392.627848 -333.391395 
L 403.929114 -329.277073 
L 415.23038 -325.162752 
L 426.531646 -321.04843 
L 437.832911 -316.934108 
L 449.134177 -312.819786 
L 460.435443 -308.705465 
L 471.736709 -304.591143 
L 483.037975 -300.476821 
L 494.339241 -296.362499 
L 505.640506 -292.248178 
L 516.941772 -288.133856 
L 528.243038 -284.019534 
L 539.544304 -279.905212 
L 550.84557 -275.790891 
L 562.146835 -271.676569 
L 573.448101 -267.562247 
L 584.749367 -263.447925 
L 596.050633 -259.333604 
L 607.351899 -255.219282 
L 618.653165 -251.10496 
L 629.95443 -246.990638 
L 641.255696 -242.876316 
L 652.556962 -238.761995 
L 663.858228 -234.647673 
L 675.159494 -230.533351 
L 686.460759 -226.419029 
L 697.762025 -222.304708 
L 709.063291 -218.190386 
L 720.364557 -214.076064 
L 731.665823 -209.961742 
L 742.967089 -205.847421 
L 754.268354 -201.733099 
L 765.56962 -197.618777 
L 776.870886 -193.504455 
L 788.172152 -189.390134 
L 799.473418 -185.275812 
L 810.774684 -181.16149 
L 822.075949 -177.047168 
L 833.377215 -172.932847 
L 844.678481 -168.818525 
L 855.979747 -164.704203 
L 867.281013 -160.589881 
L 878.582278 -156.47556 
L 889.883544 -152.361238 
L 901.18481 -148.246916 
L 912.486076 -144.132594 
L 923.787342 -140.018273 
L 935.088608 -135.903951 
L 946.389873 -131.789629 
L 957.691139 -127.675307 
L 957.691139 -126.797883 
L 957.691139 -126.797883 
L 946.389873 -131.802255 
L 935.088608 -136.806628 
L 923.787342 -141.811001 
L 912.486076 -146.815374 
L 901.18481 -151.819747 
L 889.883544 -156.82412 
L 878.582278 -161.828493 
L 867.281013 -166.832865 
L 855.979747 -171.837238 
L 844.678481 -176.841611 
L 833.377215 -181.845984 
L 822.075949 -186.850357 
L 810.774684 -191.85473 
L 799.473418 -196.859102 
L 788.172152 -201.863475 
L 776.870886 -206.867848 
L 765.56962 -211.872221 
L 754.268354 -216.876594 
L 742.967089 -221.880967 
L 731.665823 -226.885339 
L 720.364557 -231.889712 
L 709.063291 -236.894085 
L 697.762025 -241.898458 
L 686.460759 -246.902831 
L 675.159494 -251.907204 
L 663.858228 -256.911577 
L 652.556962 -261.915949 
L 641.255696 -266.920322 
L 629.95443 -271.924695 
L 618.653165 -276.929068 
L 607.351899 -281.933441 
L 596.050633 -286.937814 
L 584.749367 -291.942186 
L 573.448101 -296.946559 
L 562.146835 -301.950932 
L 550.84557 -306.955305 
L 539.544304 -311.959678 
L 528.243038 -316.964051 
L 516.941772 -321.968423 
L 505.640506 -326.972796 
L 494.339241 -331.977169 
L 483.037975 -336.981542 
L 471.736709 -341.985915 
L 460.435443 -346.990288 
L 449.134177 -351.994661 
L 437.832911 -356.999033 
L 426.531646 -362.003406 
L 415.23038 -367.007779 
L 403.929114 -372.012152 
L 392.627848 -377.016525 
L 381.326582 -382.020898 
L 370.025316 -387.02527 
L 358.724051 -392.029643 
L 347.422785 -397.034016 
L 336.121519 -402.038389 
L 324.820253 -407.042762 
L 313.518987 -412.047135 
z
" id="mb477396b7a" style="stroke:#c0c0c0;"/>
    </defs>
    <g clip-path="url(#p14ed7118b1)">
     <use style="fill:#c0c0c0;stroke:#c0c0c0;" x="0" xlink:href="#mb477396b7a" y="576"/>
    </g>
   </g>
   <g id="PolyCollection_2">
    <defs>
     <path d="M 200.506329 -404.117411 
L 200.506329 -403.334865 
L 211.807595 -399.220543 
L 223.108861 -395.106221 
L 234.410127 -390.9919 
L 245.711392 -386.877578 
L 257.012658 -382.763256 
L 268.313924 -378.648934 
L 279.61519 -374.534613 
L 290.916456 -370.420291 
L 302.217722 -366.305969 
L 313.518987 -362.191647 
L 313.518987 -413.206881 
L 313.518987 -413.206881 
L 302.217722 -412.297934 
L 290.916456 -411.388987 
L 279.61519 -410.48004 
L 268.313924 -409.571093 
L 257.012658 -408.662146 
L 245.711392 -407.753199 
L 234.410127 -406.844252 
L 223.108861 -405.935305 
L 211.807595 -405.026358 
L 200.506329 -404.117411 
z
" id="mb10e09d9dc" style="stroke:#c0c0c0;"/>
    </defs>
    <g clip-path="url(#p14ed7118b1)">
     <use style="fill:#c0c0c0;stroke:#c0c0c0;" x="0" xlink:href="#mb10e09d9dc" y="576"/>
    </g>
   </g>
   <g id="patch_3">
    <path clip-path="url(#p14ed7118b1)" d="M 199.8 188.208128 
L 205.38 196.735187 
L 199.80558 196.735187 
L 199.80558 252.16107 
L 199.79442 252.16107 
L 199.79442 196.735187 
L 194.22 196.735187 
z
" style="fill:#1f77b4;stroke:#000000;stroke-linejoin:miter;"/>
   </g>
   <g id="patch_4">
    <path clip-path="url(#p14ed7118b1)" d="M 947.52 422.702246 
L 941.94 414.175187 
L 947.51442 414.175187 
L 947.51442 358.749305 
L 947.52558 358.749305 
L 947.52558 414.175187 
L 953.1 414.175187 
z
" style="fill:#1f77b4;stroke:#000000;stroke-linejoin:miter;"/>
   </g>
   <g id="patch_5">
    <path clip-path="url(#p14ed7118b1)" d="M 311.4 158.363422 
L 305.82 149.836364 
L 311.39442 149.836364 
L 311.39442 115.728128 
L 311.40558 115.728128 
L 311.40558 149.836364 
L 316.98 149.836364 
z
" style="fill:#1f77b4;stroke:#000000;stroke-linejoin:miter;"/>
   </g>
   <g id="matplotlib.axis_1">
    <g id="xtick_1">
     <g id="line2d_1">
      <path clip-path="url(#p14ed7118b1)" d="M 144 504 
L 144 69.12 
" style="fill:none;stroke:#c0c0c0;stroke-linecap:square;stroke-width:0.8;"/>
     </g>
     <g id="line2d_2">
      <defs>
       <path d="M 0 0 
L 0 3.5 
" id="m35b66f0b6f" style="stroke:#000000;stroke-width:0.8;"/>
      </defs>
      <g>
       <use style="stroke:#000000;stroke-width:0.8;" x="144" xlink:href="#m35b66f0b6f" y="504"/>
      </g>
     </g>
     <g id="text_1">
      <!-- 0 -->
      <g transform="translate(140.81875 518.598438)scale(0.1 -0.1)">
       <defs>
        <path d="M 31.78125 66.40625 
Q 24.171875 66.40625 20.328125 58.90625 
Q 16.5 51.421875 16.5 36.375 
Q 16.5 21.390625 20.328125 13.890625 
Q 24.171875 6.390625 31.78125 6.390625 
Q 39.453125 6.390625 43.28125 13.890625 
Q 47.125 21.390625 47.125 36.375 
Q 47.125 51.421875 43.28125 58.90625 
Q 39.453125 66.40625 31.78125 66.40625 
z
M 31.78125 74.21875 
Q 44.046875 74.21875 50.515625 64.515625 
Q 56.984375 54.828125 56.984375 36.375 
Q 56.984375 17.96875 50.515625 8.265625 
Q 44.046875 -1.421875 31.78125 -1.421875 
Q 19.53125 -1.421875 13.0625 8.265625 
Q 6.59375 17.96875 6.59375 36.375 
Q 6.59375 54.828125 13.0625 64.515625 
Q 19.53125 74.21875 31.78125 74.21875 
z
" id="DejaVuSans-48"/>
       </defs>
       <use xlink:href="#DejaVuSans-48"/>
      </g>
     </g>
    </g>
    <g id="xtick_2">
     <g id="line2d_3">
      <path clip-path="url(#p14ed7118b1)" d="M 255.6 504 
L 255.6 69.12 
" style="fill:none;stroke:#c0c0c0;stroke-linecap:square;stroke-width:0.8;"/>
     </g>
     <g id="line2d_4">
      <g>
       <use style="stroke:#000000;stroke-width:0.8;" x="255.6" xlink:href="#m35b66f0b6f" y="504"/>
      </g>
     </g>
     <g id="text_2">
      <!-- 10 -->
      <g transform="translate(249.2375 518.598438)scale(0.1 -0.1)">
       <defs>
        <path d="M 12.40625 8.296875 
L 28.515625 8.296875 
L 28.515625 63.921875 
L 10.984375 60.40625 
L 10.984375 69.390625 
L 28.421875 72.90625 
L 38.28125 72.90625 
L 38.28125 8.296875 
L 54.390625 8.296875 
L 54.390625 0 
L 12.40625 0 
z
" id="DejaVuSans-49"/>
       </defs>
       <use xlink:href="#DejaVuSans-49"/>
       <use x="63.623047" xlink:href="#DejaVuSans-48"/>
      </g>
     </g>
    </g>
    <g id="xtick_3">
     <g id="line2d_5">
      <path clip-path="url(#p14ed7118b1)" d="M 367.2 504 
L 367.2 69.12 
" style="fill:none;stroke:#c0c0c0;stroke-linecap:square;stroke-width:0.8;"/>
     </g>
     <g id="line2d_6">
      <g>
       <use style="stroke:#000000;stroke-width:0.8;" x="367.2" xlink:href="#m35b66f0b6f" y="504"/>
      </g>
     </g>
     <g id="text_3">
      <!-- 20 -->
      <g transform="translate(360.8375 518.598438)scale(0.1 -0.1)">
       <defs>
        <path d="M 19.1875 8.296875 
L 53.609375 8.296875 
L 53.609375 0 
L 7.328125 0 
L 7.328125 8.296875 
Q 12.9375 14.109375 22.625 23.890625 
Q 32.328125 33.6875 34.8125 36.53125 
Q 39.546875 41.84375 41.421875 45.53125 
Q 43.3125 49.21875 43.3125 52.78125 
Q 43.3125 58.59375 39.234375 62.25 
Q 35.15625 65.921875 28.609375 65.921875 
Q 23.96875 65.921875 18.8125 64.3125 
Q 13.671875 62.703125 7.8125 59.421875 
L 7.8125 69.390625 
Q 13.765625 71.78125 18.9375 73 
Q 24.125 74.21875 28.421875 74.21875 
Q 39.75 74.21875 46.484375 68.546875 
Q 53.21875 62.890625 53.21875 53.421875 
Q 53.21875 48.921875 51.53125 44.890625 
Q 49.859375 40.875 45.40625 35.40625 
Q 44.1875 33.984375 37.640625 27.21875 
Q 31.109375 20.453125 19.1875 8.296875 
z
" id="DejaVuSans-50"/>
       </defs>
       <use xlink:href="#DejaVuSans-50"/>
       <use x="63.623047" xlink:href="#DejaVuSans-48"/>
      </g>
     </g>
    </g>
    <g id="xtick_4">
     <g id="line2d_7">
      <path clip-path="url(#p14ed7118b1)" d="M 478.8 504 
L 478.8 69.12 
" style="fill:none;stroke:#c0c0c0;stroke-linecap:square;stroke-width:0.8;"/>
     </g>
     <g id="line2d_8">
      <g>
       <use style="stroke:#000000;stroke-width:0.8;" x="478.8" xlink:href="#m35b66f0b6f" y="504"/>
      </g>
     </g>
     <g id="text_4">
      <!-- 30 -->
      <g transform="translate(472.4375 518.598438)scale(0.1 -0.1)">
       <defs>
        <path d="M 40.578125 39.3125 
Q 47.65625 37.796875 51.625 33 
Q 55.609375 28.21875 55.609375 21.1875 
Q 55.609375 10.40625 48.1875 4.484375 
Q 40.765625 -1.421875 27.09375 -1.421875 
Q 22.515625 -1.421875 17.65625 -0.515625 
Q 12.796875 0.390625 7.625 2.203125 
L 7.625 11.71875 
Q 11.71875 9.328125 16.59375 8.109375 
Q 21.484375 6.890625 26.8125 6.890625 
Q 36.078125 6.890625 40.9375 10.546875 
Q 45.796875 14.203125 45.796875 21.1875 
Q 45.796875 27.640625 41.28125 31.265625 
Q 36.765625 34.90625 28.71875 34.90625 
L 20.21875 34.90625 
L 20.21875 43.015625 
L 29.109375 43.015625 
Q 36.375 43.015625 40.234375 45.921875 
Q 44.09375 48.828125 44.09375 54.296875 
Q 44.09375 59.90625 40.109375 62.90625 
Q 36.140625 65.921875 28.71875 65.921875 
Q 24.65625 65.921875 20.015625 65.03125 
Q 15.375 64.15625 9.8125 62.3125 
L 9.8125 71.09375 
Q 15.4375 72.65625 20.34375 73.4375 
Q 25.25 74.21875 29.59375 74.21875 
Q 40.828125 74.21875 47.359375 69.109375 
Q 53.90625 64.015625 53.90625 55.328125 
Q 53.90625 49.265625 50.4375 45.09375 
Q 46.96875 40.921875 40.578125 39.3125 
z
" id="DejaVuSans-51"/>
       </defs>
       <use xlink:href="#DejaVuSans-51"/>
       <use x="63.623047" xlink:href="#DejaVuSans-48"/>
      </g>
     </g>
    </g>
    <g id="xtick_5">
     <g id="line2d_9">
      <path clip-path="url(#p14ed7118b1)" d="M 590.4 504 
L 590.4 69.12 
" style="fill:none;stroke:#c0c0c0;stroke-linecap:square;stroke-width:0.8;"/>
     </g>
     <g id="line2d_10">
      <g>
       <use style="stroke:#000000;stroke-width:0.8;" x="590.4" xlink:href="#m35b66f0b6f" y="504"/>
      </g>
     </g>
     <g id="text_5">
      <!-- 40 -->
      <g transform="translate(584.0375 518.598438)scale(0.1 -0.1)">
       <defs>
        <path d="M 37.796875 64.3125 
L 12.890625 25.390625 
L 37.796875 25.390625 
z
M 35.203125 72.90625 
L 47.609375 72.90625 
L 47.609375 25.390625 
L 58.015625 25.390625 
L 58.015625 17.1875 
L 47.609375 17.1875 
L 47.609375 0 
L 37.796875 0 
L 37.796875 17.1875 
L 4.890625 17.1875 
L 4.890625 26.703125 
z
" id="DejaVuSans-52"/>
       </defs>
       <use xlink:href="#DejaVuSans-52"/>
       <use x="63.623047" xlink:href="#DejaVuSans-48"/>
      </g>
     </g>
    </g>
    <g id="xtick_6">
     <g id="line2d_11">
      <path clip-path="url(#p14ed7118b1)" d="M 702 504 
L 702 69.12 
" style="fill:none;stroke:#c0c0c0;stroke-linecap:square;stroke-width:0.8;"/>
     </g>
     <g id="line2d_12">
      <g>
       <use style="stroke:#000000;stroke-width:0.8;" x="702" xlink:href="#m35b66f0b6f" y="504"/>
      </g>
     </g>
     <g id="text_6">
      <!-- 50 -->
      <g transform="translate(695.6375 518.598438)scale(0.1 -0.1)">
       <defs>
        <path d="M 10.796875 72.90625 
L 49.515625 72.90625 
L 49.515625 64.59375 
L 19.828125 64.59375 
L 19.828125 46.734375 
Q 21.96875 47.46875 24.109375 47.828125 
Q 26.265625 48.1875 28.421875 48.1875 
Q 40.625 48.1875 47.75 41.5 
Q 54.890625 34.8125 54.890625 23.390625 
Q 54.890625 11.625 47.5625 5.09375 
Q 40.234375 -1.421875 26.90625 -1.421875 
Q 22.3125 -1.421875 17.546875 -0.640625 
Q 12.796875 0.140625 7.71875 1.703125 
L 7.71875 11.625 
Q 12.109375 9.234375 16.796875 8.0625 
Q 21.484375 6.890625 26.703125 6.890625 
Q 35.15625 6.890625 40.078125 11.328125 
Q 45.015625 15.765625 45.015625 23.390625 
Q 45.015625 31 40.078125 35.4375 
Q 35.15625 39.890625 26.703125 39.890625 
Q 22.75 39.890625 18.8125 39.015625 
Q 14.890625 38.140625 10.796875 36.28125 
z
" id="DejaVuSans-53"/>
       </defs>
       <use xlink:href="#DejaVuSans-53"/>
       <use x="63.623047" xlink:href="#DejaVuSans-48"/>
      </g>
     </g>
    </g>
    <g id="xtick_7">
     <g id="line2d_13">
      <path clip-path="url(#p14ed7118b1)" d="M 813.6 504 
L 813.6 69.12 
" style="fill:none;stroke:#c0c0c0;stroke-linecap:square;stroke-width:0.8;"/>
     </g>
     <g id="line2d_14">
      <g>
       <use style="stroke:#000000;stroke-width:0.8;" x="813.6" xlink:href="#m35b66f0b6f" y="504"/>
      </g>
     </g>
     <g id="text_7">
      <!-- 60 -->
      <g transform="translate(807.2375 518.598438)scale(0.1 -0.1)">
       <defs>
        <path d="M 33.015625 40.375 
Q 26.375 40.375 22.484375 35.828125 
Q 18.609375 31.296875 18.609375 23.390625 
Q 18.609375 15.53125 22.484375 10.953125 
Q 26.375 6.390625 33.015625 6.390625 
Q 39.65625 6.390625 43.53125 10.953125 
Q 47.40625 15.53125 47.40625 23.390625 
Q 47.40625 31.296875 43.53125 35.828125 
Q 39.65625 40.375 33.015625 40.375 
z
M 52.59375 71.296875 
L 52.59375 62.3125 
Q 48.875 64.0625 45.09375 64.984375 
Q 41.3125 65.921875 37.59375 65.921875 
Q 27.828125 65.921875 22.671875 59.328125 
Q 17.53125 52.734375 16.796875 39.40625 
Q 19.671875 43.65625 24.015625 45.921875 
Q 28.375 48.1875 33.59375 48.1875 
Q 44.578125 48.1875 50.953125 41.515625 
Q 57.328125 34.859375 57.328125 23.390625 
Q 57.328125 12.15625 50.6875 5.359375 
Q 44.046875 -1.421875 33.015625 -1.421875 
Q 20.359375 -1.421875 13.671875 8.265625 
Q 6.984375 17.96875 6.984375 36.375 
Q 6.984375 53.65625 15.1875 63.9375 
Q 23.390625 74.21875 37.203125 74.21875 
Q 40.921875 74.21875 44.703125 73.484375 
Q 48.484375 72.75 52.59375 71.296875 
z
" id="DejaVuSans-54"/>
       </defs>
       <use xlink:href="#DejaVuSans-54"/>
       <use x="63.623047" xlink:href="#DejaVuSans-48"/>
      </g>
     </g>
    </g>
    <g id="xtick_8">
     <g id="line2d_15">
      <path clip-path="url(#p14ed7118b1)" d="M 925.2 504 
L 925.2 69.12 
" style="fill:none;stroke:#c0c0c0;stroke-linecap:square;stroke-width:0.8;"/>
     </g>
     <g id="line2d_16">
      <g>
       <use style="stroke:#000000;stroke-width:0.8;" x="925.2" xlink:href="#m35b66f0b6f" y="504"/>
      </g>
     </g>
     <g id="text_8">
      <!-- 70 -->
      <g transform="translate(918.8375 518.598438)scale(0.1 -0.1)">
       <defs>
        <path d="M 8.203125 72.90625 
L 55.078125 72.90625 
L 55.078125 68.703125 
L 28.609375 0 
L 18.3125 0 
L 43.21875 64.59375 
L 8.203125 64.59375 
z
" id="DejaVuSans-55"/>
       </defs>
       <use xlink:href="#DejaVuSans-55"/>
       <use x="63.623047" xlink:href="#DejaVuSans-48"/>
      </g>
     </g>
    </g>
    <g id="xtick_9">
     <g id="line2d_17">
      <path clip-path="url(#p14ed7118b1)" d="M 1036.8 504 
L 1036.8 69.12 
" style="fill:none;stroke:#c0c0c0;stroke-linecap:square;stroke-width:0.8;"/>
     </g>
     <g id="line2d_18">
      <g>
       <use style="stroke:#000000;stroke-width:0.8;" x="1036.8" xlink:href="#m35b66f0b6f" y="504"/>
      </g>
     </g>
     <g id="text_9">
      <!-- 80 -->
      <g transform="translate(1030.4375 518.598438)scale(0.1 -0.1)">
       <defs>
        <path d="M 31.78125 34.625 
Q 24.75 34.625 20.71875 30.859375 
Q 16.703125 27.09375 16.703125 20.515625 
Q 16.703125 13.921875 20.71875 10.15625 
Q 24.75 6.390625 31.78125 6.390625 
Q 38.8125 6.390625 42.859375 10.171875 
Q 46.921875 13.96875 46.921875 20.515625 
Q 46.921875 27.09375 42.890625 30.859375 
Q 38.875 34.625 31.78125 34.625 
z
M 21.921875 38.8125 
Q 15.578125 40.375 12.03125 44.71875 
Q 8.5 49.078125 8.5 55.328125 
Q 8.5 64.0625 14.71875 69.140625 
Q 20.953125 74.21875 31.78125 74.21875 
Q 42.671875 74.21875 48.875 69.140625 
Q 55.078125 64.0625 55.078125 55.328125 
Q 55.078125 49.078125 51.53125 44.71875 
Q 48 40.375 41.703125 38.8125 
Q 48.828125 37.15625 52.796875 32.3125 
Q 56.78125 27.484375 56.78125 20.515625 
Q 56.78125 9.90625 50.3125 4.234375 
Q 43.84375 -1.421875 31.78125 -1.421875 
Q 19.734375 -1.421875 13.25 4.234375 
Q 6.78125 9.90625 6.78125 20.515625 
Q 6.78125 27.484375 10.78125 32.3125 
Q 14.796875 37.15625 21.921875 38.8125 
z
M 18.3125 54.390625 
Q 18.3125 48.734375 21.84375 45.5625 
Q 25.390625 42.390625 31.78125 42.390625 
Q 38.140625 42.390625 41.71875 45.5625 
Q 45.3125 48.734375 45.3125 54.390625 
Q 45.3125 60.0625 41.71875 63.234375 
Q 38.140625 66.40625 31.78125 66.40625 
Q 25.390625 66.40625 21.84375 63.234375 
Q 18.3125 60.0625 18.3125 54.390625 
z
" id="DejaVuSans-56"/>
       </defs>
       <use xlink:href="#DejaVuSans-56"/>
       <use x="63.623047" xlink:href="#DejaVuSans-48"/>
      </g>
     </g>
    </g>
    <g id="text_10">
     <!-- $x_2$ -->
     <g transform="translate(583.98 533.79625)scale(0.12 -0.12)">
      <defs>
       <path d="M 60.015625 54.6875 
L 34.90625 27.875 
L 50.296875 0 
L 39.984375 0 
L 28.421875 21.6875 
L 8.296875 0 
L -2.59375 0 
L 24.3125 28.8125 
L 10.015625 54.6875 
L 20.3125 54.6875 
L 30.8125 34.90625 
L 49.125 54.6875 
z
" id="DejaVuSans-Oblique-120"/>
      </defs>
      <use transform="translate(0 0.3125)" xlink:href="#DejaVuSans-Oblique-120"/>
      <use transform="translate(59.179688 -16.09375)scale(0.7)" xlink:href="#DejaVuSans-50"/>
     </g>
    </g>
   </g>
   <g id="matplotlib.axis_2">
    <g id="ytick_1">
     <g id="line2d_19">
      <path clip-path="url(#p14ed7118b1)" d="M 144 444.019893 
L 1036.8 444.019893 
" style="fill:none;stroke:#c0c0c0;stroke-linecap:square;stroke-width:0.8;"/>
     </g>
     <g id="line2d_20">
      <defs>
       <path d="M 0 0 
L -3.5 0 
" id="md0da81808d" style="stroke:#000000;stroke-width:0.8;"/>
      </defs>
      <g>
       <use style="stroke:#000000;stroke-width:0.8;" x="144" xlink:href="#md0da81808d" y="444.019893"/>
      </g>
     </g>
     <g id="text_11">
      <!-- −60 -->
      <g transform="translate(115.895313 447.819112)scale(0.1 -0.1)">
       <defs>
        <path d="M 10.59375 35.5 
L 73.1875 35.5 
L 73.1875 27.203125 
L 10.59375 27.203125 
z
" id="DejaVuSans-8722"/>
       </defs>
       <use xlink:href="#DejaVuSans-8722"/>
       <use x="83.789062" xlink:href="#DejaVuSans-54"/>
       <use x="147.412109" xlink:href="#DejaVuSans-48"/>
      </g>
     </g>
    </g>
    <g id="ytick_2">
     <g id="line2d_21">
      <path clip-path="url(#p14ed7118b1)" d="M 144 358.749305 
L 1036.8 358.749305 
" style="fill:none;stroke:#c0c0c0;stroke-linecap:square;stroke-width:0.8;"/>
     </g>
     <g id="line2d_22">
      <g>
       <use style="stroke:#000000;stroke-width:0.8;" x="144" xlink:href="#md0da81808d" y="358.749305"/>
      </g>
     </g>
     <g id="text_12">
      <!-- −40 -->
      <g transform="translate(115.895313 362.548524)scale(0.1 -0.1)">
       <use xlink:href="#DejaVuSans-8722"/>
       <use x="83.789062" xlink:href="#DejaVuSans-52"/>
       <use x="147.412109" xlink:href="#DejaVuSans-48"/>
      </g>
     </g>
    </g>
    <g id="ytick_3">
     <g id="line2d_23">
      <path clip-path="url(#p14ed7118b1)" d="M 144 273.478717 
L 1036.8 273.478717 
" style="fill:none;stroke:#c0c0c0;stroke-linecap:square;stroke-width:0.8;"/>
     </g>
     <g id="line2d_24">
      <g>
       <use style="stroke:#000000;stroke-width:0.8;" x="144" xlink:href="#md0da81808d" y="273.478717"/>
      </g>
     </g>
     <g id="text_13">
      <!-- −20 -->
      <g transform="translate(115.895313 277.277935)scale(0.1 -0.1)">
       <use xlink:href="#DejaVuSans-8722"/>
       <use x="83.789062" xlink:href="#DejaVuSans-50"/>
       <use x="147.412109" xlink:href="#DejaVuSans-48"/>
      </g>
     </g>
    </g>
    <g id="ytick_4">
     <g id="line2d_25">
      <path clip-path="url(#p14ed7118b1)" d="M 144 188.208128 
L 1036.8 188.208128 
" style="fill:none;stroke:#c0c0c0;stroke-linecap:square;stroke-width:0.8;"/>
     </g>
     <g id="line2d_26">
      <g>
       <use style="stroke:#000000;stroke-width:0.8;" x="144" xlink:href="#md0da81808d" y="188.208128"/>
      </g>
     </g>
     <g id="text_14">
      <!-- 0 -->
      <g transform="translate(130.6375 192.007347)scale(0.1 -0.1)">
       <use xlink:href="#DejaVuSans-48"/>
      </g>
     </g>
    </g>
    <g id="ytick_5">
     <g id="line2d_27">
      <path clip-path="url(#p14ed7118b1)" d="M 144 102.93754 
L 1036.8 102.93754 
" style="fill:none;stroke:#c0c0c0;stroke-linecap:square;stroke-width:0.8;"/>
     </g>
     <g id="line2d_28">
      <g>
       <use style="stroke:#000000;stroke-width:0.8;" x="144" xlink:href="#md0da81808d" y="102.93754"/>
      </g>
     </g>
     <g id="text_15">
      <!-- 20 -->
      <g transform="translate(124.275 106.736759)scale(0.1 -0.1)">
       <use xlink:href="#DejaVuSans-50"/>
       <use x="63.623047" xlink:href="#DejaVuSans-48"/>
      </g>
     </g>
    </g>
    <g id="text_16">
     <!-- $x_1$ -->
     <g transform="translate(109.399687 292.98)rotate(-90)scale(0.12 -0.12)">
      <use transform="translate(0 0.3125)" xlink:href="#DejaVuSans-Oblique-120"/>
      <use transform="translate(59.179688 -16.09375)scale(0.7)" xlink:href="#DejaVuSans-49"/>
     </g>
    </g>
   </g>
   <g id="line2d_29">
    <path clip-path="url(#p14ed7118b1)" d="M 144 152.093526 
L 155.301266 156.207848 
L 166.602532 160.32217 
L 177.903797 164.436492 
L 189.205063 168.550813 
L 200.506329 172.665135 
L 211.807595 176.779457 
L 223.108861 180.893779 
L 234.410127 185.0081 
L 245.711392 189.122422 
L 257.012658 193.236744 
L 268.313924 197.351066 
L 279.61519 201.465387 
L 290.916456 205.579709 
L 302.217722 209.694031 
L 313.518987 213.808353 
L 324.820253 217.922674 
L 336.121519 222.036996 
L 347.422785 226.151318 
L 358.724051 230.26564 
L 370.025316 234.379961 
L 381.326582 238.494283 
L 392.627848 242.608605 
L 403.929114 246.722927 
L 415.23038 250.837248 
L 426.531646 254.95157 
L 437.832911 259.065892 
L 449.134177 263.180214 
L 460.435443 267.294535 
L 471.736709 271.408857 
L 483.037975 275.523179 
L 494.339241 279.637501 
L 505.640506 283.751822 
L 516.941772 287.866144 
L 528.243038 291.980466 
L 539.544304 296.094788 
L 550.84557 300.209109 
L 562.146835 304.323431 
L 573.448101 308.437753 
L 584.749367 312.552075 
L 596.050633 316.666396 
L 607.351899 320.780718 
L 618.653165 324.89504 
L 629.95443 329.009362 
L 641.255696 333.123684 
L 652.556962 337.238005 
L 663.858228 341.352327 
L 675.159494 345.466649 
L 686.460759 349.580971 
L 697.762025 353.695292 
L 709.063291 357.809614 
L 720.364557 361.923936 
L 731.665823 366.038258 
L 742.967089 370.152579 
L 754.268354 374.266901 
L 765.56962 378.381223 
L 776.870886 382.495545 
L 788.172152 386.609866 
L 799.473418 390.724188 
L 810.774684 394.83851 
L 822.075949 398.952832 
L 833.377215 403.067153 
L 844.678481 407.181475 
L 855.979747 411.295797 
L 867.281013 415.410119 
L 878.582278 419.52444 
L 889.883544 423.638762 
L 901.18481 427.753084 
L 912.486076 431.867406 
L 923.787342 435.981727 
L 935.088608 440.096049 
L 946.389873 444.210371 
L 957.691139 448.324693 
L 968.992405 452.439014 
L 980.293671 456.553336 
L 991.594937 460.667658 
L 1002.896203 464.78198 
L 1014.197468 468.896301 
L 1025.498734 473.010623 
L 1036.8 477.124945 
" style="fill:none;stroke:#ff0000;stroke-dasharray:5.55,2.4;stroke-dashoffset:0;stroke-width:1.5;"/>
   </g>
   <g id="line2d_30">
    <path clip-path="url(#p14ed7118b1)" d="M 144 176.427323 
L 155.301266 175.518376 
L 166.602532 174.609429 
L 177.903797 173.700482 
L 189.205063 172.791535 
L 200.506329 171.882589 
L 211.807595 170.973642 
L 223.108861 170.064695 
L 234.410127 169.155748 
L 245.711392 168.246801 
L 257.012658 167.337854 
L 268.313924 166.428907 
L 279.61519 165.51996 
L 290.916456 164.611013 
L 302.217722 163.702066 
L 313.518987 162.793119 
L 324.820253 161.884172 
L 336.121519 160.975225 
L 347.422785 160.066278 
L 358.724051 159.157331 
L 370.025316 158.248384 
L 381.326582 157.339437 
L 392.627848 156.43049 
L 403.929114 155.521543 
L 415.23038 154.612596 
L 426.531646 153.703649 
L 437.832911 152.794702 
L 449.134177 151.885755 
L 460.435443 150.976808 
L 471.736709 150.067861 
L 483.037975 149.158914 
L 494.339241 148.249967 
L 505.640506 147.34102 
L 516.941772 146.432073 
L 528.243038 145.523126 
L 539.544304 144.614179 
L 550.84557 143.705232 
L 562.146835 142.796285 
L 573.448101 141.887338 
L 584.749367 140.978391 
L 596.050633 140.069444 
L 607.351899 139.160497 
L 618.653165 138.25155 
L 629.95443 137.342603 
L 641.255696 136.433656 
L 652.556962 135.524709 
L 663.858228 134.615762 
L 675.159494 133.706815 
L 686.460759 132.797869 
L 697.762025 131.888922 
L 709.063291 130.979975 
L 720.364557 130.071028 
L 731.665823 129.162081 
L 742.967089 128.253134 
L 754.268354 127.344187 
L 765.56962 126.43524 
L 776.870886 125.526293 
L 788.172152 124.617346 
L 799.473418 123.708399 
L 810.774684 122.799452 
L 822.075949 121.890505 
L 833.377215 120.981558 
L 844.678481 120.072611 
L 855.979747 119.163664 
L 867.281013 118.254717 
L 878.582278 117.34577 
L 889.883544 116.436823 
L 901.18481 115.527876 
L 912.486076 114.618929 
L 923.787342 113.709982 
L 935.088608 112.801035 
L 946.389873 111.892088 
L 957.691139 110.983141 
L 968.992405 110.074194 
L 980.293671 109.165247 
L 991.594937 108.2563 
L 1002.896203 107.347353 
L 1014.197468 106.438406 
L 1025.498734 105.529459 
L 1036.8 104.620512 
" style="fill:none;stroke:#006400;stroke-dasharray:9.6,2.4,1.5,2.4;stroke-dashoffset:0;stroke-width:1.5;"/>
   </g>
   <g id="line2d_31">
    <path clip-path="url(#p14ed7118b1)" d="M 144 88.887273 
L 155.301266 93.891646 
L 166.602532 98.896018 
L 177.903797 103.900391 
L 189.205063 108.904764 
L 200.506329 113.909137 
L 211.807595 118.91351 
L 223.108861 123.917883 
L 234.410127 128.922255 
L 245.711392 133.926628 
L 257.012658 138.931001 
L 268.313924 143.935374 
L 279.61519 148.939747 
L 290.916456 153.94412 
L 302.217722 158.948493 
L 313.518987 163.952865 
L 324.820253 168.957238 
L 336.121519 173.961611 
L 347.422785 178.965984 
L 358.724051 183.970357 
L 370.025316 188.97473 
L 381.326582 193.979102 
L 392.627848 198.983475 
L 403.929114 203.987848 
L 415.23038 208.992221 
L 426.531646 213.996594 
L 437.832911 219.000967 
L 449.134177 224.005339 
L 460.435443 229.009712 
L 471.736709 234.014085 
L 483.037975 239.018458 
L 494.339241 244.022831 
L 505.640506 249.027204 
L 516.941772 254.031577 
L 528.243038 259.035949 
L 539.544304 264.040322 
L 550.84557 269.044695 
L 562.146835 274.049068 
L 573.448101 279.053441 
L 584.749367 284.057814 
L 596.050633 289.062186 
L 607.351899 294.066559 
L 618.653165 299.070932 
L 629.95443 304.075305 
L 641.255696 309.079678 
L 652.556962 314.084051 
L 663.858228 319.088423 
L 675.159494 324.092796 
L 686.460759 329.097169 
L 697.762025 334.101542 
L 709.063291 339.105915 
L 720.364557 344.110288 
L 731.665823 349.114661 
L 742.967089 354.119033 
L 754.268354 359.123406 
L 765.56962 364.127779 
L 776.870886 369.132152 
L 788.172152 374.136525 
L 799.473418 379.140898 
L 810.774684 384.14527 
L 822.075949 389.149643 
L 833.377215 394.154016 
L 844.678481 399.158389 
L 855.979747 404.162762 
L 867.281013 409.167135 
L 878.582278 414.171507 
L 889.883544 419.17588 
L 901.18481 424.180253 
L 912.486076 429.184626 
L 923.787342 434.188999 
L 935.088608 439.193372 
L 946.389873 444.197745 
L 957.691139 449.202117 
L 968.992405 454.20649 
L 980.293671 459.210863 
L 991.594937 464.215236 
L 1002.896203 469.219609 
L 1014.197468 474.223982 
L 1025.498734 479.228354 
L 1036.8 484.232727 
" style="fill:none;stroke:#00008b;stroke-dasharray:1.5,2.475;stroke-dashoffset:0;stroke-width:1.5;"/>
   </g>
   <g id="line2d_32">
    <path clip-path="url(#p14ed7118b1)" d="M 198.745769 172.024188 
" style="fill:none;stroke:#008000;stroke-linecap:square;stroke-width:1.5;"/>
    <defs>
     <path d="M 0 3 
C 0.795609 3 1.55874 2.683901 2.12132 2.12132 
C 2.683901 1.55874 3 0.795609 3 0 
C 3 -0.795609 2.683901 -1.55874 2.12132 -2.12132 
C 1.55874 -2.683901 0.795609 -3 0 -3 
C -0.795609 -3 -1.55874 -2.683901 -2.12132 -2.12132 
C -2.683901 -1.55874 -3 -0.795609 -3 0 
C -3 0.795609 -2.683901 1.55874 -2.12132 2.12132 
C -1.55874 2.683901 -0.795609 3 0 3 
z
" id="mef92a5e34e" style="stroke:#008000;"/>
    </defs>
    <g clip-path="url(#p14ed7118b1)">
     <use style="fill:#008000;stroke:#008000;" x="198.745769" xlink:href="#mef92a5e34e" y="172.024188"/>
    </g>
   </g>
   <g id="line2d_33">
    <path clip-path="url(#p14ed7118b1)" d="M 946.550195 444.268737 
" style="fill:none;stroke:#ff0000;stroke-linecap:square;stroke-width:1.5;"/>
    <defs>
     <path d="M 0 3 
C 0.795609 3 1.55874 2.683901 2.12132 2.12132 
C 2.683901 1.55874 3 0.795609 3 0 
C 3 -0.795609 2.683901 -1.55874 2.12132 -2.12132 
C 1.55874 -2.683901 0.795609 -3 0 -3 
C -0.795609 -3 -1.55874 -2.683901 -2.12132 -2.12132 
C -2.683901 -1.55874 -3 -0.795609 -3 0 
C -3 0.795609 -2.683901 1.55874 -2.12132 2.12132 
C -1.55874 2.683901 -0.795609 3 0 3 
z
" id="md9ba26be6e" style="stroke:#ff0000;"/>
    </defs>
    <g clip-path="url(#p14ed7118b1)">
     <use style="fill:#ff0000;stroke:#ff0000;" x="946.550195" xlink:href="#md9ba26be6e" y="444.268737"/>
    </g>
   </g>
   <g id="line2d_34">
    <path clip-path="url(#p14ed7118b1)" d="M 311.302533 162.971385 
" style="fill:none;stroke:#0000ff;stroke-linecap:square;stroke-width:1.5;"/>
    <defs>
     <path d="M 0 3 
C 0.795609 3 1.55874 2.683901 2.12132 2.12132 
C 2.683901 1.55874 3 0.795609 3 0 
C 3 -0.795609 2.683901 -1.55874 2.12132 -2.12132 
C 1.55874 -2.683901 0.795609 -3 0 -3 
C -0.795609 -3 -1.55874 -2.683901 -2.12132 -2.12132 
C -2.683901 -1.55874 -3 -0.795609 -3 0 
C -3 0.795609 -2.683901 1.55874 -2.12132 2.12132 
C -1.55874 2.683901 -0.795609 3 0 3 
z
" id="m8f5fb73ad7" style="stroke:#0000ff;"/>
    </defs>
    <g clip-path="url(#p14ed7118b1)">
     <use style="fill:#0000ff;stroke:#0000ff;" x="311.302533" xlink:href="#m8f5fb73ad7" y="162.971385"/>
    </g>
   </g>
   <g id="patch_6">
    <path d="M 144 504 
L 144 69.12 
" style="fill:none;stroke:#000000;stroke-linecap:square;stroke-linejoin:miter;stroke-width:0.8;"/>
   </g>
   <g id="patch_7">
    <path d="M 1036.8 504 
L 1036.8 69.12 
" style="fill:none;stroke:#000000;stroke-linecap:square;stroke-linejoin:miter;stroke-width:0.8;"/>
   </g>
   <g id="patch_8">
    <path d="M 144 504 
L 1036.8 504 
" style="fill:none;stroke:#000000;stroke-linecap:square;stroke-linejoin:miter;stroke-width:0.8;"/>
   </g>
   <g id="patch_9">
    <path d="M 144 69.12 
L 1036.8 69.12 
" style="fill:none;stroke:#000000;stroke-linecap:square;stroke-linejoin:miter;stroke-width:0.8;"/>
   </g>
   <g id="text_17">
    <!-- $−3.2*x_1+15.2*x_2=42$ -->
    <g transform="translate(367.73004 145.5779)rotate(-4)scale(0.1 -0.1)">
     <defs>
      <path d="M 10.6875 12.40625 
L 21 12.40625 
L 21 0 
L 10.6875 0 
z
" id="DejaVuSans-46"/>
      <path d="M 47.015625 60.890625 
L 29.5 51.421875 
L 47.015625 41.890625 
L 44.1875 37.109375 
L 27.78125 47.015625 
L 27.78125 28.609375 
L 22.21875 28.609375 
L 22.21875 47.015625 
L 5.8125 37.109375 
L 2.984375 41.890625 
L 20.515625 51.421875 
L 2.984375 60.890625 
L 5.8125 65.71875 
L 22.21875 55.8125 
L 22.21875 74.21875 
L 27.78125 74.21875 
L 27.78125 55.8125 
L 44.1875 65.71875 
z
" id="DejaVuSans-42"/>
      <path d="M 46 62.703125 
L 46 35.5 
L 73.1875 35.5 
L 73.1875 27.203125 
L 46 27.203125 
L 46 0 
L 37.796875 0 
L 37.796875 27.203125 
L 10.59375 27.203125 
L 10.59375 35.5 
L 37.796875 35.5 
L 37.796875 62.703125 
z
" id="DejaVuSans-43"/>
      <path d="M 10.59375 45.40625 
L 73.1875 45.40625 
L 73.1875 37.203125 
L 10.59375 37.203125 
z
M 10.59375 25.484375 
L 73.1875 25.484375 
L 73.1875 17.1875 
L 10.59375 17.1875 
z
" id="DejaVuSans-61"/>
     </defs>
     <use transform="translate(0 0.78125)" xlink:href="#DejaVuSans-8722"/>
     <use transform="translate(83.789062 0.78125)" xlink:href="#DejaVuSans-51"/>
     <use transform="translate(147.412109 0.78125)" xlink:href="#DejaVuSans-46"/>
     <use transform="translate(173.699219 0.78125)" xlink:href="#DejaVuSans-50"/>
     <use transform="translate(256.804688 0.78125)" xlink:href="#DejaVuSans-42"/>
     <use transform="translate(326.287109 0.78125)" xlink:href="#DejaVuSans-Oblique-120"/>
     <use transform="translate(385.466797 -15.625)scale(0.7)" xlink:href="#DejaVuSans-49"/>
     <use transform="translate(452.219727 0.78125)" xlink:href="#DejaVuSans-43"/>
     <use transform="translate(555.491211 0.78125)" xlink:href="#DejaVuSans-49"/>
     <use transform="translate(619.114258 0.78125)" xlink:href="#DejaVuSans-53"/>
     <use transform="translate(682.737305 0.78125)" xlink:href="#DejaVuSans-46"/>
     <use transform="translate(709.024414 0.78125)" xlink:href="#DejaVuSans-50"/>
     <use transform="translate(792.129883 0.78125)" xlink:href="#DejaVuSans-42"/>
     <use transform="translate(861.612305 0.78125)" xlink:href="#DejaVuSans-Oblique-120"/>
     <use transform="translate(920.791992 -15.625)scale(0.7)" xlink:href="#DejaVuSans-50"/>
     <use transform="translate(987.544922 0.78125)" xlink:href="#DejaVuSans-61"/>
     <use transform="translate(1090.816406 0.78125)" xlink:href="#DejaVuSans-52"/>
     <use transform="translate(1154.439453 0.78125)" xlink:href="#DejaVuSans-50"/>
    </g>
   </g>
   <g id="text_18">
    <!-- $10.2*x_1+8.8*x_2=205$ -->
    <g transform="translate(423.878914 201.599467)rotate(-335)scale(0.1 -0.1)">
     <use transform="translate(0 0.78125)" xlink:href="#DejaVuSans-49"/>
     <use transform="translate(63.623047 0.78125)" xlink:href="#DejaVuSans-48"/>
     <use transform="translate(127.246094 0.78125)" xlink:href="#DejaVuSans-46"/>
     <use transform="translate(153.533203 0.78125)" xlink:href="#DejaVuSans-50"/>
     <use transform="translate(236.638672 0.78125)" xlink:href="#DejaVuSans-42"/>
     <use transform="translate(306.121094 0.78125)" xlink:href="#DejaVuSans-Oblique-120"/>
     <use transform="translate(365.300781 -15.625)scale(0.7)" xlink:href="#DejaVuSans-49"/>
     <use transform="translate(432.053711 0.78125)" xlink:href="#DejaVuSans-43"/>
     <use transform="translate(535.325195 0.78125)" xlink:href="#DejaVuSans-56"/>
     <use transform="translate(598.948242 0.78125)" xlink:href="#DejaVuSans-46"/>
     <use transform="translate(628.110352 0.78125)" xlink:href="#DejaVuSans-56"/>
     <use transform="translate(711.21582 0.78125)" xlink:href="#DejaVuSans-42"/>
     <use transform="translate(780.698242 0.78125)" xlink:href="#DejaVuSans-Oblique-120"/>
     <use transform="translate(839.87793 -15.625)scale(0.7)" xlink:href="#DejaVuSans-50"/>
     <use transform="translate(906.630859 0.78125)" xlink:href="#DejaVuSans-61"/>
     <use transform="translate(1009.902344 0.78125)" xlink:href="#DejaVuSans-50"/>
     <use transform="translate(1073.525391 0.78125)" xlink:href="#DejaVuSans-48"/>
     <use transform="translate(1137.148438 0.78125)" xlink:href="#DejaVuSans-53"/>
    </g>
   </g>
   <g id="text_19">
    <!-- $8.1*x_1+8.5*x_2=72$ -->
    <g transform="translate(312.111295 206.752852)rotate(-340)scale(0.1 -0.1)">
     <use transform="translate(0 0.78125)" xlink:href="#DejaVuSans-56"/>
     <use transform="translate(63.623047 0.78125)" xlink:href="#DejaVuSans-46"/>
     <use transform="translate(95.410156 0.78125)" xlink:href="#DejaVuSans-49"/>
     <use transform="translate(178.515625 0.78125)" xlink:href="#DejaVuSans-42"/>
     <use transform="translate(247.998047 0.78125)" xlink:href="#DejaVuSans-Oblique-120"/>
     <use transform="translate(307.177734 -15.625)scale(0.7)" xlink:href="#DejaVuSans-49"/>
     <use transform="translate(373.930664 0.78125)" xlink:href="#DejaVuSans-43"/>
     <use transform="translate(477.202148 0.78125)" xlink:href="#DejaVuSans-56"/>
     <use transform="translate(540.825195 0.78125)" xlink:href="#DejaVuSans-46"/>
     <use transform="translate(572.612305 0.78125)" xlink:href="#DejaVuSans-53"/>
     <use transform="translate(655.717773 0.78125)" xlink:href="#DejaVuSans-42"/>
     <use transform="translate(725.200195 0.78125)" xlink:href="#DejaVuSans-Oblique-120"/>
     <use transform="translate(784.379883 -15.625)scale(0.7)" xlink:href="#DejaVuSans-50"/>
     <use transform="translate(851.132812 0.78125)" xlink:href="#DejaVuSans-61"/>
     <use transform="translate(954.404297 0.78125)" xlink:href="#DejaVuSans-55"/>
     <use transform="translate(1018.027344 0.78125)" xlink:href="#DejaVuSans-50"/>
    </g>
   </g>
   <g id="text_20">
    <!-- $Точка\quadпересичения\quadf_2\quadand\quadf_3$ -->
    <g transform="translate(233.28 102.93754)scale(0.1 -0.1)">
     <defs>
      <path d="M 5.90625 72.90625 
L 67.578125 72.90625 
L 66.015625 64.59375 
L 39.984375 64.59375 
L 27.484375 0 
L 17.578125 0 
L 30.078125 64.59375 
L 4.296875 64.59375 
z
" id="DejaVuSans-Oblique-1058"/>
      <path d="M 25.390625 -1.421875 
Q 15.765625 -1.421875 10.171875 4.515625 
Q 4.59375 10.453125 4.59375 20.703125 
Q 4.59375 26.65625 6.515625 32.828125 
Q 8.453125 39.015625 11.53125 43.21875 
Q 16.359375 49.75 22.3125 52.875 
Q 28.265625 56 35.796875 56 
Q 45.125 56 50.859375 50.1875 
Q 56.59375 44.390625 56.59375 35.015625 
Q 56.59375 28.515625 54.6875 22.0625 
Q 52.78125 15.625 49.703125 11.375 
Q 44.921875 4.828125 38.96875 1.703125 
Q 33.015625 -1.421875 25.390625 -1.421875 
z
M 13.921875 21 
Q 13.921875 13.578125 17.015625 9.890625 
Q 20.125 6.203125 26.421875 6.203125 
Q 35.453125 6.203125 41.375 14.078125 
Q 47.3125 21.96875 47.3125 34.078125 
Q 47.3125 41.15625 44.140625 44.765625 
Q 40.96875 48.390625 34.8125 48.390625 
Q 29.734375 48.390625 25.78125 46.015625 
Q 21.828125 43.65625 18.703125 38.8125 
Q 16.40625 35.203125 15.15625 30.5625 
Q 13.921875 25.921875 13.921875 21 
z
" id="DejaVuSans-Oblique-1086"/>
      <path d="M 46.34375 54.6875 
L 55.328125 54.6875 
L 44.671875 0 
L 35.6875 0 
L 40.1875 23 
L 23.4375 23 
Q 15.96875 23 11.859375 27.640625 
Q 9.375 30.46875 9.375 35.5 
Q 9.375 37.890625 9.96875 40.828125 
L 12.640625 54.6875 
L 21.625 54.6875 
L 19.09375 41.65625 
Q 18.703125 39.59375 18.703125 37.890625 
Q 18.703125 30.171875 27.046875 30.171875 
L 41.546875 30.171875 
z
" id="DejaVuSans-Oblique-1095"/>
      <path d="M 14.40625 54.6875 
L 23.34375 54.6875 
L 18.359375 29 
L 48.6875 54.6875 
L 59.71875 54.6875 
L 34.71875 33.546875 
L 51.765625 0 
L 41.703125 0 
L 27.6875 27.59375 
L 16.15625 17.828125 
L 12.703125 0 
L 3.765625 0 
z
" id="DejaVuSans-Oblique-1082"/>
      <path d="M 53.71875 31.203125 
L 47.609375 0 
L 38.625 0 
L 40.28125 8.296875 
Q 36.328125 3.421875 31.265625 1 
Q 26.21875 -1.421875 20.015625 -1.421875 
Q 13.03125 -1.421875 8.5625 2.84375 
Q 4.109375 7.125 4.109375 13.8125 
Q 4.109375 23.390625 11.75 28.953125 
Q 19.390625 34.515625 32.8125 34.515625 
L 45.3125 34.515625 
L 45.796875 36.921875 
Q 45.90625 37.3125 45.953125 37.765625 
Q 46 38.234375 46 39.203125 
Q 46 43.5625 42.453125 45.96875 
Q 38.921875 48.390625 32.515625 48.390625 
Q 28.125 48.390625 23.5 47.265625 
Q 18.890625 46.140625 14.015625 43.890625 
L 15.578125 52.203125 
Q 20.65625 54.109375 25.515625 55.046875 
Q 30.375 56 34.90625 56 
Q 44.578125 56 49.625 51.796875 
Q 54.6875 47.609375 54.6875 39.59375 
Q 54.6875 37.984375 54.4375 35.8125 
Q 54.203125 33.640625 53.71875 31.203125 
z
M 44 27.484375 
L 35.015625 27.484375 
Q 23.96875 27.484375 18.671875 24.53125 
Q 13.375 21.578125 13.375 15.375 
Q 13.375 11.078125 16.078125 8.640625 
Q 18.796875 6.203125 23.578125 6.203125 
Q 30.90625 6.203125 36.375 11.453125 
Q 41.84375 16.703125 43.609375 25.484375 
z
" id="DejaVuSans-Oblique-1072"/>
      <path d="M 61.625 54.6875 
L 50.984375 0 
L 41.9375 0 
L 51.171875 47.515625 
L 22.015625 47.515625 
L 12.796875 0 
L 3.765625 0 
L 14.40625 54.6875 
z
" id="DejaVuSans-Oblique-1087"/>
      <path d="M 48.09375 32.234375 
Q 48.25 33.015625 48.3125 33.84375 
Q 48.390625 34.671875 48.390625 35.5 
Q 48.390625 41.453125 44.890625 44.921875 
Q 41.40625 48.390625 35.40625 48.390625 
Q 28.71875 48.390625 23.578125 44.15625 
Q 18.453125 39.9375 15.828125 32.171875 
z
M 55.90625 25.203125 
L 14.109375 25.203125 
Q 13.8125 23.34375 13.71875 22.265625 
Q 13.625 21.1875 13.625 20.40625 
Q 13.625 13.625 17.796875 9.90625 
Q 21.96875 6.203125 29.59375 6.203125 
Q 35.453125 6.203125 40.671875 7.515625 
Q 45.90625 8.84375 50.390625 11.375 
L 48.6875 2.484375 
Q 43.84375 0.53125 38.6875 -0.4375 
Q 33.546875 -1.421875 28.21875 -1.421875 
Q 16.84375 -1.421875 10.71875 4.015625 
Q 4.59375 9.46875 4.59375 19.484375 
Q 4.59375 28.03125 7.640625 35.375 
Q 10.6875 42.71875 16.609375 48.484375 
Q 20.40625 52.09375 25.65625 54.046875 
Q 30.90625 56 36.8125 56 
Q 46.09375 56 51.578125 50.4375 
Q 57.078125 44.875 57.078125 35.5 
Q 57.078125 33.25 56.78125 30.6875 
Q 56.5 28.125 55.90625 25.203125 
z
" id="DejaVuSans-Oblique-1077"/>
      <path d="M 49.609375 33.6875 
Q 49.609375 40.875 46.484375 44.671875 
Q 43.359375 48.484375 37.5 48.484375 
Q 33.5 48.484375 29.859375 46.4375 
Q 26.21875 44.390625 23.390625 40.484375 
Q 20.609375 36.625 18.9375 31.15625 
Q 17.28125 25.6875 17.28125 20.3125 
Q 17.28125 13.484375 20.40625 9.796875 
Q 23.53125 6.109375 29.296875 6.109375 
Q 33.546875 6.109375 37.1875 8.109375 
Q 40.828125 10.109375 43.40625 13.921875 
Q 46.1875 17.921875 47.890625 23.34375 
Q 49.609375 28.765625 49.609375 33.6875 
z
M 21.78125 46.390625 
Q 25.390625 51.125 30.296875 53.5625 
Q 35.203125 56 41.21875 56 
Q 49.609375 56 54.25 50.5 
Q 58.890625 45.015625 58.890625 35.109375 
Q 58.890625 27 56 19.65625 
Q 53.125 12.3125 47.703125 6.5 
Q 44.09375 2.640625 39.546875 0.609375 
Q 35.015625 -1.421875 29.984375 -1.421875 
Q 24.171875 -1.421875 20.21875 1 
Q 16.265625 3.421875 14.3125 8.203125 
L 8.6875 -20.796875 
L -0.296875 -20.796875 
L 14.40625 54.6875 
L 23.390625 54.6875 
z
" id="DejaVuSans-Oblique-1088"/>
      <path d="M 53.609375 52.59375 
L 51.8125 43.703125 
Q 48.578125 46.046875 44.9375 47.21875 
Q 41.3125 48.390625 37.40625 48.390625 
Q 33.109375 48.390625 29.21875 46.875 
Q 25.34375 45.359375 22.703125 42.578125 
Q 18.5 38.328125 16.203125 32.609375 
Q 13.921875 26.90625 13.921875 20.796875 
Q 13.921875 13.421875 17.609375 9.8125 
Q 21.296875 6.203125 28.8125 6.203125 
Q 32.515625 6.203125 36.6875 7.328125 
Q 40.875 8.453125 45.40625 10.6875 
L 43.703125 1.8125 
Q 39.796875 0.203125 35.671875 -0.609375 
Q 31.546875 -1.421875 27.203125 -1.421875 
Q 16.3125 -1.421875 10.453125 4.015625 
Q 4.59375 9.46875 4.59375 19.578125 
Q 4.59375 28.078125 7.640625 35.234375 
Q 10.6875 42.390625 16.703125 48.09375 
Q 20.796875 52 26.3125 54 
Q 31.84375 56 38.375 56 
Q 42.1875 56 45.9375 55.140625 
Q 49.703125 54.296875 53.609375 52.59375 
z
" id="DejaVuSans-Oblique-1089"/>
      <path d="M 61.234375 54.6875 
L 50.59375 0 
L 41.65625 0 
L 50.203125 43.890625 
L 15.28125 0 
L 3.765625 0 
L 14.40625 54.6875 
L 23.34375 54.6875 
L 14.796875 10.890625 
L 49.65625 54.6875 
z
" id="DejaVuSans-Oblique-1080"/>
      <path d="M 14.40625 54.6875 
L 23.4375 54.6875 
L 19.09375 32.375 
L 48.25 32.375 
L 52.59375 54.6875 
L 61.625 54.6875 
L 50.984375 0 
L 41.9375 0 
L 46.828125 25.203125 
L 17.671875 25.203125 
L 12.796875 0 
L 3.765625 0 
z
" id="DejaVuSans-Oblique-1085"/>
      <path d="M 25.046875 45.265625 
Q 20.515625 42.390625 20.515625 37.15625 
Q 20.515625 34.328125 22.90625 32.296875 
Q 25.296875 30.28125 31.109375 30.28125 
L 43.21875 30.28125 
L 46.53125 47.515625 
L 34.421875 47.515625 
Q 28.609375 47.515625 25.046875 45.265625 
z
M 0.34375 0 
L 21.734375 23.96875 
Q 11.03125 26.46875 11.03125 35.015625 
Q 11.03125 36.8125 11.421875 38.921875 
Q 14.546875 54.6875 35.59375 54.6875 
L 56.984375 54.6875 
L 46.34375 0 
L 37.3125 0 
L 41.796875 23.09375 
L 30.609375 23.09375 
L 10.015625 0 
z
" id="DejaVuSans-Oblique-1103"/>
      <path d="M 47.796875 75.984375 
L 46.390625 68.5 
L 37.796875 68.5 
Q 32.90625 68.5 30.6875 66.578125 
Q 28.46875 64.65625 27.390625 59.515625 
L 26.421875 54.6875 
L 41.21875 54.6875 
L 39.890625 47.703125 
L 25.09375 47.703125 
L 15.828125 0 
L 6.78125 0 
L 16.109375 47.703125 
L 7.515625 47.703125 
L 8.796875 54.6875 
L 17.390625 54.6875 
L 18.109375 58.5 
Q 19.96875 68.171875 24.625 72.078125 
Q 29.296875 75.984375 39.3125 75.984375 
z
" id="DejaVuSans-Oblique-102"/>
      <path d="M 53.71875 31.203125 
L 47.609375 0 
L 38.625 0 
L 40.28125 8.296875 
Q 36.328125 3.421875 31.265625 1 
Q 26.21875 -1.421875 20.015625 -1.421875 
Q 13.03125 -1.421875 8.5625 2.84375 
Q 4.109375 7.125 4.109375 13.8125 
Q 4.109375 23.390625 11.75 28.953125 
Q 19.390625 34.515625 32.8125 34.515625 
L 45.3125 34.515625 
L 45.796875 36.921875 
Q 45.90625 37.3125 45.953125 37.765625 
Q 46 38.234375 46 39.203125 
Q 46 43.5625 42.453125 45.96875 
Q 38.921875 48.390625 32.515625 48.390625 
Q 28.125 48.390625 23.5 47.265625 
Q 18.890625 46.140625 14.015625 43.890625 
L 15.578125 52.203125 
Q 20.65625 54.109375 25.515625 55.046875 
Q 30.375 56 34.90625 56 
Q 44.578125 56 49.625 51.796875 
Q 54.6875 47.609375 54.6875 39.59375 
Q 54.6875 37.984375 54.4375 35.8125 
Q 54.203125 33.640625 53.71875 31.203125 
z
M 44 27.484375 
L 35.015625 27.484375 
Q 23.96875 27.484375 18.671875 24.53125 
Q 13.375 21.578125 13.375 15.375 
Q 13.375 11.078125 16.078125 8.640625 
Q 18.796875 6.203125 23.578125 6.203125 
Q 30.90625 6.203125 36.375 11.453125 
Q 41.84375 16.703125 43.609375 25.484375 
z
" id="DejaVuSans-Oblique-97"/>
      <path d="M 55.71875 33.015625 
L 49.3125 0 
L 40.28125 0 
L 46.6875 32.671875 
Q 47.125 34.96875 47.359375 36.71875 
Q 47.609375 38.484375 47.609375 39.5 
Q 47.609375 43.609375 45.015625 45.890625 
Q 42.4375 48.1875 37.796875 48.1875 
Q 30.5625 48.1875 25.34375 43.375 
Q 20.125 38.578125 18.5 30.328125 
L 12.5 0 
L 3.515625 0 
L 14.109375 54.6875 
L 23.09375 54.6875 
L 21.296875 46.09375 
Q 25.046875 50.828125 30.3125 53.40625 
Q 35.59375 56 41.40625 56 
Q 48.640625 56 52.609375 52.09375 
Q 56.59375 48.1875 56.59375 41.109375 
Q 56.59375 39.359375 56.375 37.359375 
Q 56.15625 35.359375 55.71875 33.015625 
z
" id="DejaVuSans-Oblique-110"/>
      <path d="M 41.796875 8.203125 
Q 38.1875 3.46875 33.25 1.015625 
Q 28.328125 -1.421875 22.3125 -1.421875 
Q 14.109375 -1.421875 9.34375 4.171875 
Q 4.59375 9.765625 4.59375 19.484375 
Q 4.59375 27.59375 7.46875 34.9375 
Q 10.359375 42.28125 15.828125 48.09375 
Q 19.4375 51.953125 23.96875 53.96875 
Q 28.515625 56 33.5 56 
Q 38.765625 56 42.796875 53.453125 
Q 46.828125 50.921875 49.03125 46.1875 
L 54.890625 75.984375 
L 63.921875 75.984375 
L 49.125 0 
L 40.09375 0 
z
M 13.921875 21.09375 
Q 13.921875 14.015625 17.109375 10.0625 
Q 20.3125 6.109375 25.984375 6.109375 
Q 30.171875 6.109375 33.765625 8.125 
Q 37.359375 10.15625 40.09375 14.109375 
Q 42.96875 18.21875 44.625 23.578125 
Q 46.296875 28.953125 46.296875 34.1875 
Q 46.296875 40.96875 43.09375 44.765625 
Q 39.890625 48.578125 34.28125 48.578125 
Q 30.03125 48.578125 26.359375 46.578125 
Q 22.703125 44.578125 20.125 40.828125 
Q 17.28125 36.765625 15.59375 31.390625 
Q 13.921875 26.03125 13.921875 21.09375 
z
" id="DejaVuSans-Oblique-100"/>
     </defs>
     <use transform="translate(0 0.015625)" xlink:href="#DejaVuSans-Oblique-1058"/>
     <use transform="translate(61.083984 0.015625)" xlink:href="#DejaVuSans-Oblique-1086"/>
     <use transform="translate(122.265625 0.015625)" xlink:href="#DejaVuSans-Oblique-1095"/>
     <use transform="translate(181.347656 0.015625)" xlink:href="#DejaVuSans-Oblique-1082"/>
     <use transform="translate(241.748047 0.015625)" xlink:href="#DejaVuSans-Oblique-1072"/>
     <use transform="translate(400.439453 0.015625)" xlink:href="#DejaVuSans-Oblique-1087"/>
     <use transform="translate(465.820312 0.015625)" xlink:href="#DejaVuSans-Oblique-1077"/>
     <use transform="translate(527.34375 0.015625)" xlink:href="#DejaVuSans-Oblique-1088"/>
     <use transform="translate(590.820312 0.015625)" xlink:href="#DejaVuSans-Oblique-1077"/>
     <use transform="translate(652.34375 0.015625)" xlink:href="#DejaVuSans-Oblique-1089"/>
     <use transform="translate(707.324219 0.015625)" xlink:href="#DejaVuSans-Oblique-1080"/>
     <use transform="translate(772.314453 0.015625)" xlink:href="#DejaVuSans-Oblique-1095"/>
     <use transform="translate(831.396484 0.015625)" xlink:href="#DejaVuSans-Oblique-1077"/>
     <use transform="translate(892.919922 0.015625)" xlink:href="#DejaVuSans-Oblique-1085"/>
     <use transform="translate(958.300781 0.015625)" xlink:href="#DejaVuSans-Oblique-1080"/>
     <use transform="translate(1023.291016 0.015625)" xlink:href="#DejaVuSans-Oblique-1103"/>
     <use transform="translate(1180.859375 0.015625)" xlink:href="#DejaVuSans-Oblique-102"/>
     <use transform="translate(1216.064453 -16.390625)scale(0.7)" xlink:href="#DejaVuSans-50"/>
     <use transform="translate(1360.74707 0.015625)" xlink:href="#DejaVuSans-Oblique-97"/>
     <use transform="translate(1422.026367 0.015625)" xlink:href="#DejaVuSans-Oblique-110"/>
     <use transform="translate(1485.405273 0.015625)" xlink:href="#DejaVuSans-Oblique-100"/>
     <use transform="translate(1646.293945 0.015625)" xlink:href="#DejaVuSans-Oblique-102"/>
     <use transform="translate(1681.499023 -16.390625)scale(0.7)" xlink:href="#DejaVuSans-51"/>
    </g>
   </g>
   <g id="text_21">
    <!-- $Точка\quadпересичения\quadf_1\quadand\quadf_2$ -->
    <g transform="translate(166.32 273.478717)scale(0.1 -0.1)">
     <use transform="translate(0 0.015625)" xlink:href="#DejaVuSans-Oblique-1058"/>
     <use transform="translate(61.083984 0.015625)" xlink:href="#DejaVuSans-Oblique-1086"/>
     <use transform="translate(122.265625 0.015625)" xlink:href="#DejaVuSans-Oblique-1095"/>
     <use transform="translate(181.347656 0.015625)" xlink:href="#DejaVuSans-Oblique-1082"/>
     <use transform="translate(241.748047 0.015625)" xlink:href="#DejaVuSans-Oblique-1072"/>
     <use transform="translate(400.439453 0.015625)" xlink:href="#DejaVuSans-Oblique-1087"/>
     <use transform="translate(465.820312 0.015625)" xlink:href="#DejaVuSans-Oblique-1077"/>
     <use transform="translate(527.34375 0.015625)" xlink:href="#DejaVuSans-Oblique-1088"/>
     <use transform="translate(590.820312 0.015625)" xlink:href="#DejaVuSans-Oblique-1077"/>
     <use transform="translate(652.34375 0.015625)" xlink:href="#DejaVuSans-Oblique-1089"/>
     <use transform="translate(707.324219 0.015625)" xlink:href="#DejaVuSans-Oblique-1080"/>
     <use transform="translate(772.314453 0.015625)" xlink:href="#DejaVuSans-Oblique-1095"/>
     <use transform="translate(831.396484 0.015625)" xlink:href="#DejaVuSans-Oblique-1077"/>
     <use transform="translate(892.919922 0.015625)" xlink:href="#DejaVuSans-Oblique-1085"/>
     <use transform="translate(958.300781 0.015625)" xlink:href="#DejaVuSans-Oblique-1080"/>
     <use transform="translate(1023.291016 0.015625)" xlink:href="#DejaVuSans-Oblique-1103"/>
     <use transform="translate(1180.859375 0.015625)" xlink:href="#DejaVuSans-Oblique-102"/>
     <use transform="translate(1216.064453 -16.390625)scale(0.7)" xlink:href="#DejaVuSans-49"/>
     <use transform="translate(1360.74707 0.015625)" xlink:href="#DejaVuSans-Oblique-97"/>
     <use transform="translate(1422.026367 0.015625)" xlink:href="#DejaVuSans-Oblique-110"/>
     <use transform="translate(1485.405273 0.015625)" xlink:href="#DejaVuSans-Oblique-100"/>
     <use transform="translate(1646.293945 0.015625)" xlink:href="#DejaVuSans-Oblique-102"/>
     <use transform="translate(1681.499023 -16.390625)scale(0.7)" xlink:href="#DejaVuSans-50"/>
    </g>
   </g>
   <g id="text_22">
    <!-- $Точка\quadпересичения\quadf_1\quadand\quadf_3$ -->
    <g transform="translate(813.6 350.222246)scale(0.1 -0.1)">
     <use transform="translate(0 0.015625)" xlink:href="#DejaVuSans-Oblique-1058"/>
     <use transform="translate(61.083984 0.015625)" xlink:href="#DejaVuSans-Oblique-1086"/>
     <use transform="translate(122.265625 0.015625)" xlink:href="#DejaVuSans-Oblique-1095"/>
     <use transform="translate(181.347656 0.015625)" xlink:href="#DejaVuSans-Oblique-1082"/>
     <use transform="translate(241.748047 0.015625)" xlink:href="#DejaVuSans-Oblique-1072"/>
     <use transform="translate(400.439453 0.015625)" xlink:href="#DejaVuSans-Oblique-1087"/>
     <use transform="translate(465.820312 0.015625)" xlink:href="#DejaVuSans-Oblique-1077"/>
     <use transform="translate(527.34375 0.015625)" xlink:href="#DejaVuSans-Oblique-1088"/>
     <use transform="translate(590.820312 0.015625)" xlink:href="#DejaVuSans-Oblique-1077"/>
     <use transform="translate(652.34375 0.015625)" xlink:href="#DejaVuSans-Oblique-1089"/>
     <use transform="translate(707.324219 0.015625)" xlink:href="#DejaVuSans-Oblique-1080"/>
     <use transform="translate(772.314453 0.015625)" xlink:href="#DejaVuSans-Oblique-1095"/>
     <use transform="translate(831.396484 0.015625)" xlink:href="#DejaVuSans-Oblique-1077"/>
     <use transform="translate(892.919922 0.015625)" xlink:href="#DejaVuSans-Oblique-1085"/>
     <use transform="translate(958.300781 0.015625)" xlink:href="#DejaVuSans-Oblique-1080"/>
     <use transform="translate(1023.291016 0.015625)" xlink:href="#DejaVuSans-Oblique-1103"/>
     <use transform="translate(1180.859375 0.015625)" xlink:href="#DejaVuSans-Oblique-102"/>
     <use transform="translate(1216.064453 -16.390625)scale(0.7)" xlink:href="#DejaVuSans-49"/>
     <use transform="translate(1360.74707 0.015625)" xlink:href="#DejaVuSans-Oblique-97"/>
     <use transform="translate(1422.026367 0.015625)" xlink:href="#DejaVuSans-Oblique-110"/>
     <use transform="translate(1485.405273 0.015625)" xlink:href="#DejaVuSans-Oblique-100"/>
     <use transform="translate(1646.293945 0.015625)" xlink:href="#DejaVuSans-Oblique-102"/>
     <use transform="translate(1681.499023 -16.390625)scale(0.7)" xlink:href="#DejaVuSans-51"/>
    </g>
   </g>
   <g id="text_23">
    <!-- Все прямые на одном рисунке -->
    <g transform="translate(494.0325 63.12)scale(0.12 -0.12)">
     <defs>
      <path d="M 19.671875 34.8125 
L 19.671875 8.109375 
L 35.5 8.109375 
Q 43.453125 8.109375 47.28125 11.40625 
Q 51.125 14.703125 51.125 21.484375 
Q 51.125 28.328125 47.28125 31.5625 
Q 43.453125 34.8125 35.5 34.8125 
z
M 19.671875 64.796875 
L 19.671875 42.828125 
L 34.28125 42.828125 
Q 41.5 42.828125 45.03125 45.53125 
Q 48.578125 48.25 48.578125 53.8125 
Q 48.578125 59.328125 45.03125 62.0625 
Q 41.5 64.796875 34.28125 64.796875 
z
M 9.8125 72.90625 
L 35.015625 72.90625 
Q 46.296875 72.90625 52.390625 68.21875 
Q 58.5 63.53125 58.5 54.890625 
Q 58.5 48.1875 55.375 44.234375 
Q 52.25 40.28125 46.1875 39.3125 
Q 53.46875 37.75 57.5 32.78125 
Q 61.53125 27.828125 61.53125 20.40625 
Q 61.53125 10.640625 54.890625 5.3125 
Q 48.25 0 35.984375 0 
L 9.8125 0 
z
" id="DejaVuSans-1042"/>
      <path d="M 48.78125 52.59375 
L 48.78125 44.1875 
Q 44.96875 46.296875 41.140625 47.34375 
Q 37.3125 48.390625 33.40625 48.390625 
Q 24.65625 48.390625 19.8125 42.84375 
Q 14.984375 37.3125 14.984375 27.296875 
Q 14.984375 17.28125 19.8125 11.734375 
Q 24.65625 6.203125 33.40625 6.203125 
Q 37.3125 6.203125 41.140625 7.25 
Q 44.96875 8.296875 48.78125 10.40625 
L 48.78125 2.09375 
Q 45.015625 0.34375 40.984375 -0.53125 
Q 36.96875 -1.421875 32.421875 -1.421875 
Q 20.0625 -1.421875 12.78125 6.34375 
Q 5.515625 14.109375 5.515625 27.296875 
Q 5.515625 40.671875 12.859375 48.328125 
Q 20.21875 56 33.015625 56 
Q 37.15625 56 41.109375 55.140625 
Q 45.0625 54.296875 48.78125 52.59375 
z
" id="DejaVuSans-1089"/>
      <path d="M 56.203125 29.59375 
L 56.203125 25.203125 
L 14.890625 25.203125 
Q 15.484375 15.921875 20.484375 11.0625 
Q 25.484375 6.203125 34.421875 6.203125 
Q 39.59375 6.203125 44.453125 7.46875 
Q 49.3125 8.734375 54.109375 11.28125 
L 54.109375 2.78125 
Q 49.265625 0.734375 44.1875 -0.34375 
Q 39.109375 -1.421875 33.890625 -1.421875 
Q 20.796875 -1.421875 13.15625 6.1875 
Q 5.515625 13.8125 5.515625 26.8125 
Q 5.515625 40.234375 12.765625 48.109375 
Q 20.015625 56 32.328125 56 
Q 43.359375 56 49.78125 48.890625 
Q 56.203125 41.796875 56.203125 29.59375 
z
M 47.21875 32.234375 
Q 47.125 39.59375 43.09375 43.984375 
Q 39.0625 48.390625 32.421875 48.390625 
Q 24.90625 48.390625 20.390625 44.140625 
Q 15.875 39.890625 15.1875 32.171875 
z
" id="DejaVuSans-1077"/>
      <path id="DejaVuSans-32"/>
      <path d="M 56.296875 54.6875 
L 56.296875 0 
L 47.265625 0 
L 47.265625 47.515625 
L 18.109375 47.515625 
L 18.109375 0 
L 9.078125 0 
L 9.078125 54.6875 
z
" id="DejaVuSans-1087"/>
      <path d="M 18.109375 8.203125 
L 18.109375 -20.796875 
L 9.078125 -20.796875 
L 9.078125 54.6875 
L 18.109375 54.6875 
L 18.109375 46.390625 
Q 20.953125 51.265625 25.265625 53.625 
Q 29.59375 56 35.59375 56 
Q 45.5625 56 51.78125 48.09375 
Q 58.015625 40.1875 58.015625 27.296875 
Q 58.015625 14.40625 51.78125 6.484375 
Q 45.5625 -1.421875 35.59375 -1.421875 
Q 29.59375 -1.421875 25.265625 0.953125 
Q 20.953125 3.328125 18.109375 8.203125 
z
M 48.6875 27.296875 
Q 48.6875 37.203125 44.609375 42.84375 
Q 40.53125 48.484375 33.40625 48.484375 
Q 26.265625 48.484375 22.1875 42.84375 
Q 18.109375 37.203125 18.109375 27.296875 
Q 18.109375 17.390625 22.1875 11.75 
Q 26.265625 6.109375 33.40625 6.109375 
Q 40.53125 6.109375 44.609375 11.75 
Q 48.6875 17.390625 48.6875 27.296875 
z
" id="DejaVuSans-1088"/>
      <path d="M 18.453125 38.921875 
Q 18.453125 34.859375 21.578125 32.5625 
Q 24.703125 30.28125 30.515625 30.28125 
L 42.625 30.28125 
L 42.625 47.515625 
L 30.515625 47.515625 
Q 24.703125 47.515625 21.578125 45.265625 
Q 18.453125 43.015625 18.453125 38.921875 
z
M 5.671875 0 
L 22.359375 23.96875 
Q 16.703125 25.25 12.9375 28.59375 
Q 9.1875 31.9375 9.1875 38.921875 
Q 9.1875 46.828125 14.421875 50.75 
Q 19.671875 54.6875 30.28125 54.6875 
L 51.65625 54.6875 
L 51.65625 0 
L 42.625 0 
L 42.625 23.09375 
L 31.453125 23.09375 
L 15.328125 0 
z
" id="DejaVuSans-1103"/>
      <path d="M 9.078125 54.6875 
L 22.21875 54.6875 
L 37.75 18.0625 
L 53.328125 54.6875 
L 66.359375 54.6875 
L 66.359375 0 
L 57.328125 0 
L 57.328125 46.09375 
L 42.234375 10.5 
L 33.25 10.5 
L 18.109375 46.09375 
L 18.109375 0 
L 9.078125 0 
z
" id="DejaVuSans-1084"/>
      <path d="M 61.078125 54.6875 
L 70.0625 54.6875 
L 70.0625 0 
L 61.078125 0 
z
M 65.578125 56 
z
M 43.453125 16.21875 
Q 43.453125 20.609375 40.25 22.90625 
Q 37.0625 25.203125 30.90625 25.203125 
L 18.109375 25.203125 
L 18.109375 7.171875 
L 30.90625 7.171875 
Q 37.0625 7.171875 40.25 9.484375 
Q 43.453125 11.8125 43.453125 16.21875 
z
M 9.078125 54.6875 
L 18.109375 54.6875 
L 18.109375 32.375 
L 31.296875 32.375 
Q 41.75 32.375 47.390625 28.390625 
Q 53.03125 24.421875 53.03125 16.21875 
Q 53.03125 8.015625 47.390625 4 
Q 41.75 0 31.296875 0 
L 9.078125 0 
z
" id="DejaVuSans-1099"/>
      <path d="M 9.078125 54.6875 
L 18.109375 54.6875 
L 18.109375 32.375 
L 47.265625 32.375 
L 47.265625 54.6875 
L 56.296875 54.6875 
L 56.296875 0 
L 47.265625 0 
L 47.265625 25.203125 
L 18.109375 25.203125 
L 18.109375 0 
L 9.078125 0 
z
" id="DejaVuSans-1085"/>
      <path d="M 34.28125 27.484375 
Q 23.390625 27.484375 19.1875 25 
Q 14.984375 22.515625 14.984375 16.5 
Q 14.984375 11.71875 18.140625 8.90625 
Q 21.296875 6.109375 26.703125 6.109375 
Q 34.1875 6.109375 38.703125 11.40625 
Q 43.21875 16.703125 43.21875 25.484375 
L 43.21875 27.484375 
z
M 52.203125 31.203125 
L 52.203125 0 
L 43.21875 0 
L 43.21875 8.296875 
Q 40.140625 3.328125 35.546875 0.953125 
Q 30.953125 -1.421875 24.3125 -1.421875 
Q 15.921875 -1.421875 10.953125 3.296875 
Q 6 8.015625 6 15.921875 
Q 6 25.140625 12.171875 29.828125 
Q 18.359375 34.515625 30.609375 34.515625 
L 43.21875 34.515625 
L 43.21875 35.40625 
Q 43.21875 41.609375 39.140625 45 
Q 35.0625 48.390625 27.6875 48.390625 
Q 23 48.390625 18.546875 47.265625 
Q 14.109375 46.140625 10.015625 43.890625 
L 10.015625 52.203125 
Q 14.9375 54.109375 19.578125 55.046875 
Q 24.21875 56 28.609375 56 
Q 40.484375 56 46.34375 49.84375 
Q 52.203125 43.703125 52.203125 31.203125 
z
" id="DejaVuSans-1072"/>
      <path d="M 30.609375 48.390625 
Q 23.390625 48.390625 19.1875 42.75 
Q 14.984375 37.109375 14.984375 27.296875 
Q 14.984375 17.484375 19.15625 11.84375 
Q 23.34375 6.203125 30.609375 6.203125 
Q 37.796875 6.203125 41.984375 11.859375 
Q 46.1875 17.53125 46.1875 27.296875 
Q 46.1875 37.015625 41.984375 42.703125 
Q 37.796875 48.390625 30.609375 48.390625 
z
M 30.609375 56 
Q 42.328125 56 49.015625 48.375 
Q 55.71875 40.765625 55.71875 27.296875 
Q 55.71875 13.875 49.015625 6.21875 
Q 42.328125 -1.421875 30.609375 -1.421875 
Q 18.84375 -1.421875 12.171875 6.21875 
Q 5.515625 13.875 5.515625 27.296875 
Q 5.515625 40.765625 12.171875 48.375 
Q 18.84375 56 30.609375 56 
z
" id="DejaVuSans-1086"/>
      <path d="M 21.625 7.171875 
L 47.703125 7.171875 
L 47.703125 47.515625 
L 28.8125 47.515625 
L 28.8125 40.671875 
Q 28.8125 20.5625 23.046875 9.8125 
z
M 8.59375 7.171875 
Q 13.03125 9.125 14.984375 13.28125 
Q 19.78125 23.578125 19.78125 44.34375 
L 19.78125 54.6875 
L 56.734375 54.6875 
L 56.734375 7.171875 
L 63.921875 7.171875 
L 63.921875 -13.8125 
L 56.734375 -13.8125 
L 56.734375 0 
L 12.40625 0 
L 12.40625 -13.8125 
L 5.21875 -13.8125 
L 5.21875 7.171875 
z
" id="DejaVuSans-1076"/>
      <path d="M 55.90625 54.6875 
L 55.90625 0 
L 46.96875 0 
L 46.96875 43.890625 
L 20.609375 0 
L 9.078125 0 
L 9.078125 54.6875 
L 18.015625 54.6875 
L 18.015625 10.890625 
L 44.34375 54.6875 
z
" id="DejaVuSans-1080"/>
      <path d="M 32.171875 -5.078125 
Q 28.375 -14.84375 24.75 -17.8125 
Q 21.140625 -20.796875 15.09375 -20.796875 
L 7.90625 -20.796875 
L 7.90625 -13.28125 
L 13.1875 -13.28125 
Q 16.890625 -13.28125 18.9375 -11.515625 
Q 21 -9.765625 23.484375 -3.21875 
L 25.09375 0.875 
L 2.984375 54.6875 
L 12.5 54.6875 
L 29.59375 11.921875 
L 46.6875 54.6875 
L 56.203125 54.6875 
z
" id="DejaVuSans-1091"/>
      <path d="M 9.078125 54.6875 
L 18.015625 54.6875 
L 18.015625 29 
L 43.359375 54.6875 
L 54.390625 54.6875 
L 33.5 33.546875 
L 57.078125 0 
L 47.015625 0 
L 27.640625 27.59375 
L 18.015625 17.828125 
L 18.015625 0 
L 9.078125 0 
z
" id="DejaVuSans-1082"/>
     </defs>
     <use xlink:href="#DejaVuSans-1042"/>
     <use x="68.603516" xlink:href="#DejaVuSans-1089"/>
     <use x="123.583984" xlink:href="#DejaVuSans-1077"/>
     <use x="185.107422" xlink:href="#DejaVuSans-32"/>
     <use x="216.894531" xlink:href="#DejaVuSans-1087"/>
     <use x="282.275391" xlink:href="#DejaVuSans-1088"/>
     <use x="345.751953" xlink:href="#DejaVuSans-1103"/>
     <use x="405.908203" xlink:href="#DejaVuSans-1084"/>
     <use x="481.347656" xlink:href="#DejaVuSans-1099"/>
     <use x="560.302734" xlink:href="#DejaVuSans-1077"/>
     <use x="621.826172" xlink:href="#DejaVuSans-32"/>
     <use x="653.613281" xlink:href="#DejaVuSans-1085"/>
     <use x="718.994141" xlink:href="#DejaVuSans-1072"/>
     <use x="780.273438" xlink:href="#DejaVuSans-32"/>
     <use x="812.060547" xlink:href="#DejaVuSans-1086"/>
     <use x="873.242188" xlink:href="#DejaVuSans-1076"/>
     <use x="942.382812" xlink:href="#DejaVuSans-1085"/>
     <use x="1007.763672" xlink:href="#DejaVuSans-1086"/>
     <use x="1068.945312" xlink:href="#DejaVuSans-1084"/>
     <use x="1144.384766" xlink:href="#DejaVuSans-32"/>
     <use x="1176.171875" xlink:href="#DejaVuSans-1088"/>
     <use x="1239.648438" xlink:href="#DejaVuSans-1080"/>
     <use x="1304.638672" xlink:href="#DejaVuSans-1089"/>
     <use x="1359.619141" xlink:href="#DejaVuSans-1091"/>
     <use x="1418.798828" xlink:href="#DejaVuSans-1085"/>
     <use x="1484.179688" xlink:href="#DejaVuSans-1082"/>
     <use x="1544.580078" xlink:href="#DejaVuSans-1077"/>
    </g>
   </g>
   <g id="legend_1">
    <g id="patch_10">
     <path d="M 151 499 
L 191.3 499 
Q 193.3 499 193.3 497 
L 193.3 453.965625 
Q 193.3 451.965625 191.3 451.965625 
L 151 451.965625 
Q 149 451.965625 149 453.965625 
L 149 497 
Q 149 499 151 499 
z
" style="fill:#ffffff;opacity:0.8;stroke:#cccccc;stroke-linejoin:miter;"/>
    </g>
    <g id="line2d_35">
     <path d="M 153 460.064062 
L 173 460.064062 
" style="fill:none;stroke:#ff0000;stroke-dasharray:5.55,2.4;stroke-dashoffset:0;stroke-width:1.5;"/>
    </g>
    <g id="line2d_36"/>
    <g id="text_24">
     <!-- $f_1$ -->
     <g transform="translate(181 463.564062)scale(0.1 -0.1)">
      <use transform="translate(0 0.015625)" xlink:href="#DejaVuSans-Oblique-102"/>
      <use transform="translate(35.205078 -16.390625)scale(0.7)" xlink:href="#DejaVuSans-49"/>
     </g>
    </g>
    <g id="line2d_37">
     <path d="M 153 474.742188 
L 173 474.742188 
" style="fill:none;stroke:#006400;stroke-dasharray:9.6,2.4,1.5,2.4;stroke-dashoffset:0;stroke-width:1.5;"/>
    </g>
    <g id="line2d_38"/>
    <g id="text_25">
     <!-- $f_2$ -->
     <g transform="translate(181 478.242188)scale(0.1 -0.1)">
      <use transform="translate(0 0.015625)" xlink:href="#DejaVuSans-Oblique-102"/>
      <use transform="translate(35.205078 -16.390625)scale(0.7)" xlink:href="#DejaVuSans-50"/>
     </g>
    </g>
    <g id="line2d_39">
     <path d="M 153 489.420313 
L 173 489.420313 
" style="fill:none;stroke:#00008b;stroke-dasharray:1.5,2.475;stroke-dashoffset:0;stroke-width:1.5;"/>
    </g>
    <g id="line2d_40"/>
    <g id="text_26">
     <!-- $f_3$ -->
     <g transform="translate(181 492.920313)scale(0.1 -0.1)">
      <use transform="translate(0 0.015625)" xlink:href="#DejaVuSans-Oblique-102"/>
      <use transform="translate(35.205078 -16.390625)scale(0.7)" xlink:href="#DejaVuSans-51"/>
     </g>
    </g>
   </g>
  </g>
 </g>
 <defs>
  <clipPath id="p14ed7118b1">
   <rect height="434.88" width="892.8" x="144" y="69.12"/>
  </clipPath>
 </defs>
</svg>
